<?xml version="1.0" standalone="no"?>
<!DOCTYPE svg PUBLIC "-//W3C//DTD SVG 1.1//EN" "http://www.w3.org/Graphics/SVG/1.1/DTD/svg11.dtd" >
<svg xmlns="http://www.w3.org/2000/svg">
<metadata></metadata>
<defs>
<font id="motiva_sans_thinregular" horiz-adv-x="1245" >
<font-face units-per-em="2048" ascent="1540" descent="-508" />
<missing-glyph horiz-adv-x="614" />
<glyph horiz-adv-x="2048" />
<glyph horiz-adv-x="2048" />
<glyph unicode="&#xd;" horiz-adv-x="2048" />
<glyph unicode=" "  horiz-adv-x="614" />
<glyph unicode="&#x09;" horiz-adv-x="614" />
<glyph unicode="&#xa0;" horiz-adv-x="614" />
<glyph unicode="!" horiz-adv-x="589" d="M184 88q0 52 30.5 82.5t80.5 30.5t79 -30.5t29 -82.5q0 -53 -29 -83t-79 -30t-80.5 30t-30.5 83zM221 1436h166l-35 -1039h-104z" />
<glyph unicode="&#x22;" horiz-adv-x="874" d="M229 1434h142l-21 -455h-96zM504 1434h139l-20 -455h-95z" />
<glyph unicode="#" horiz-adv-x="1411" d="M82 426v94h313l56 412h-324v94h336l53 408h100l-53 -408h355l51 408h100l-51 -408h311v-94h-323l-52 -412h328v-94h-340l-53 -426h-101l54 426h-355l-55 -426h-104l55 426h-301zM500 520h354l51 412h-354z" />
<glyph unicode="$" horiz-adv-x="1157" d="M113 98l51 105q216 -105 418 -105q172 0 262 66t90 170q0 98 -98 163q-62 41 -240 110h-1h-1l-1 1h-1h-1l-1 1h-1l-1 1h-1h-1l-1 1h-1l-1 1h-2l-1 1h-1h-1l-1 1h-1l-1 1h-1h-1l-2 1q-61 23 -94 36.5t-86.5 38t-83.5 44t-67 50t-56.5 60.5t-33 70.5t-13.5 85.5 q0 151 117.5 245t306.5 102l-10 165h117l-11 -167q189 -14 373 -117l-59 -113q-192 111 -385 111q-142 0 -232 -59.5t-90 -157.5q0 -43 20.5 -80t49.5 -62.5t80.5 -52t93 -43t107.5 -40.5q13 -5 20 -7q94 -36 157 -64.5t120 -63t88.5 -69.5t50 -79.5t18.5 -98.5 q0 -154 -119.5 -259.5t-328.5 -115.5l10 -178h-117l10 180q-224 12 -411 121z" />
<glyph unicode="%" horiz-adv-x="1507" d="M80 1147q0 146 85.5 228.5t211.5 82.5t207.5 -83t81.5 -228q0 -146 -81.5 -228.5t-207.5 -82.5q-127 0 -212 82t-85 229zM190 1147q0 -103 50.5 -161t134.5 -58q87 0 133.5 57t46.5 162q0 103 -46.5 160t-133.5 57q-84 0 -134.5 -57.5t-50.5 -159.5zM225 0l963 1434h119 l-965 -1434h-117zM842 289q0 147 85 229t212 82q125 0 206.5 -82.5t81.5 -228.5t-82 -230t-206 -84q-126 0 -211.5 83t-85.5 231zM952 289q0 -102 50 -160.5t135 -58.5q87 0 133.5 57.5t46.5 161.5t-46.5 161.5t-133.5 57.5q-85 0 -135 -58.5t-50 -160.5z" />
<glyph unicode="&#x26;" horiz-adv-x="1478" d="M166 301q0 200 229 371l76 57l-14 12q-53 51 -78.5 76.5t-61 67.5t-51 73.5t-27.5 74t-12 89.5q0 150 100 243t283 93q170 0 269.5 -81.5t99.5 -211.5q0 -177 -205 -344l-121 -92l340 -328q31 64 64 154l67 193l111 -41l-80 -211q-45 -118 -76 -177l279 -266l-90 -88 l-252 242q-84 -123 -188 -177.5t-248 -54.5q-202 0 -308 91t-106 235zM289 311q0 -104 70.5 -165.5t205.5 -61.5q227 0 365 205l-379 362l-100 -78q-86 -63 -124 -126.5t-38 -135.5zM350 1124q0 -56 23.5 -103t56.5 -81t107 -100l36 -35l103 78q178 134 178 280 q0 67 -35.5 111t-88 61t-120.5 17q-129 0 -194.5 -60.5t-65.5 -167.5z" />
<glyph unicode="'" horiz-adv-x="522" d="M193 1434h139l-21 -455h-94z" />
<glyph unicode="(" horiz-adv-x="665" d="M143 719q0 132 20 251t50.5 205.5t72.5 161.5t81 123.5t81 87.5t67 56.5t44 27.5l43 -63q-2 -2 -26.5 -25t-40 -40t-46 -51.5t-52.5 -71t-50 -87t-47.5 -110t-37.5 -129.5t-27 -156t-9 -180q0 -85 8.5 -164.5t20.5 -143t33 -125.5t39.5 -106t46 -90.5t45.5 -73.5 t46.5 -60t40.5 -45.5t35 -34.5l23 -23l-43 -62q-24 16 -42.5 30.5t-65 59t-82.5 91.5t-81 125.5t-75 164.5t-51 206t-21 251z" />
<glyph unicode=")" horiz-adv-x="667" d="M61 -147q1 0 19 17t48.5 53.5t66 87t72 124.5t66 158t48 196t18.5 230t-18.5 229t-47.5 193.5t-65.5 155t-71.5 121t-65.5 84t-48.5 51.5t-19 16l46 63l44 -34q160 -136 258 -346q113 -241 113 -533q0 -420 -229 -733q-90 -122 -183 -191l-6 -4z" />
<glyph unicode="*" horiz-adv-x="864" d="M164 1372l45 74l184 -115l-6 215h90l-12 -217l192 117l43 -68l-202 -116l200 -103l-41 -67l-192 114l12 -217h-90l6 217l-184 -114l-43 65l201 105z" />
<glyph unicode="+" horiz-adv-x="1505" d="M244 664v116h446v471h117v-471h448v-116h-448v-471h-117v471h-446z" />
<glyph unicode="," horiz-adv-x="655" d="M207 -182q90 90 100 182q-33 5 -59.5 31.5t-26.5 64.5q0 44 28.5 69t72.5 25q48 0 74 -31.5t26 -84.5q0 -72 -38 -149t-128 -144z" />
<glyph unicode="-" horiz-adv-x="929" d="M184 541v106h561v-106h-561z" />
<glyph unicode="." horiz-adv-x="655" d="M217 88q0 53 30.5 83t80.5 30t80 -30t30 -83t-30 -83t-80 -30t-80.5 30t-30.5 83z" />
<glyph unicode="/" horiz-adv-x="718" d="M41 -82l561 1622h123l-563 -1622h-121z" />
<glyph unicode="0" horiz-adv-x="1292" d="M113 709q0 191 43.5 338t118.5 235t169.5 132t202.5 44t201.5 -44t169 -132t119 -235t43.5 -338q0 -184 -43.5 -327.5t-118.5 -231t-169.5 -132.5t-201.5 -45q-108 0 -202.5 45t-169.5 132.5t-118.5 231t-43.5 327.5zM240 709q0 -293 110 -455t297 -162q186 0 296 163 t110 454q0 304 -109.5 467t-296.5 163q-188 0 -297.5 -162.5t-109.5 -467.5z" />
<glyph unicode="1" horiz-adv-x="1110" d="M111 1217l438 223h90v-1331h303v-109h-735v109h307v1187l-350 -172z" />
<glyph unicode="2" horiz-adv-x="1298" d="M137 1305q222 153 479 153q234 0 363 -116.5t129 -301.5q0 -64 -19.5 -124.5t-43 -103t-82.5 -105.5t-96 -97t-126 -112l-51 -45l-379 -336h840v-117h-997v119l405 360q35 32 86 76t81.5 70.5t70.5 64t63.5 64t49.5 62t39.5 67t22.5 70t9 79.5q0 148 -99.5 226.5 t-275.5 78.5q-227 0 -397 -133z" />
<glyph unicode="3" horiz-adv-x="1257" d="M74 133l73 100q187 -139 414 -139q109 0 197.5 27t143.5 72.5t84.5 102t29.5 118.5q0 152 -113 220t-348 68h-135v123h127q111 0 199.5 27.5t146 89.5t57.5 150q0 108 -101.5 177.5t-268.5 69.5q-204 0 -383 -141l-74 90q202 170 479 170q114 0 206.5 -27t150 -73.5 t88 -105t30.5 -124.5q0 -128 -75 -219t-195 -131v-6q143 -15 240.5 -113t97.5 -235q0 -196 -160.5 -322.5t-413.5 -126.5q-144 0 -272.5 42t-224.5 116z" />
<glyph unicode="4" horiz-adv-x="1347" d="M127 403v101l766 930h111v-920h229v-111h-229v-403h-121l-4 403h-752zM276 514h607v733l-607 -731v-2z" />
<glyph unicode="5" horiz-adv-x="1302" d="M188 106l68 95q138 -105 358 -105q193 0 309.5 99t116.5 264q0 153 -104.5 235t-263.5 82q-189 0 -350 -119l-99 64v719h838v-119h-717v-522q134 94 334 94q75 0 145 -16t132.5 -50t109.5 -83.5t74.5 -121t27.5 -157.5q0 -223 -146.5 -356.5t-404.5 -133.5 q-270 0 -428 131z" />
<glyph unicode="6" horiz-adv-x="1236" d="M104 694q0 135 23.5 249.5t66 196.5t98 144.5t122.5 99.5t137.5 55.5t144.5 18.5q150 0 249.5 -28t184.5 -84l-69 -101q-157 92 -350 92q-76 0 -143 -18.5t-131.5 -65.5t-110 -120t-73.5 -189t-28 -264q97 99 209 152t273 53q68 0 134 -15.5t129 -49.5t110.5 -83.5 t76.5 -122.5t29 -161q0 -201 -146.5 -339.5t-361.5 -138.5q-574 0 -574 719zM240 543q9 -213 123.5 -331t304.5 -118q179 0 285 101.5t106 257.5q0 148 -107 230.5t-272 82.5q-129 0 -245 -59.5t-195 -163.5z" />
<glyph unicode="7" horiz-adv-x="1193" d="M68 1321v113h1013v-113l-675 -1321h-140l686 1321h-884z" />
<glyph unicode="8" horiz-adv-x="1259" d="M113 397q0 143 85 249.5t210 133.5q-114 40 -177 124.5t-63 201.5q0 154 126 253t339 99q214 0 339.5 -99t125.5 -253q0 -116 -63.5 -200t-178.5 -126q120 -26 205.5 -133.5t85.5 -249.5q0 -190 -133.5 -306t-380.5 -116q-254 0 -387 115.5t-133 306.5zM240 408 q0 -144 101 -229t292 -85t289 84.5t98 229.5q0 139 -107 226t-280 87q-174 0 -283.5 -87.5t-109.5 -225.5zM293 1096q0 -81 47.5 -139t123 -85.5t169.5 -27.5q148 0 244 65.5t96 186.5q0 117 -91 183.5t-249 66.5q-157 0 -248.5 -66.5t-91.5 -183.5z" />
<glyph unicode="9" horiz-adv-x="1239" d="M76 1016q0 133 69.5 235.5t179 154.5t238.5 52q276 0 418.5 -168.5t142.5 -498.5q0 -177 -31 -316t-86 -232t-134 -154t-171 -87.5t-202 -26.5q-121 0 -213 28.5t-181 80.5l64 102q155 -92 338 -92q104 0 191.5 37t157.5 114t109.5 208.5t39.5 306.5q-117 -101 -224 -144 t-256 -43q-194 0 -322 118.5t-128 324.5zM203 1016q0 -150 87 -234t240 -84q136 0 273 57t196 142q-4 113 -41.5 201t-98 139t-131 76.5t-148.5 25.5q-154 0 -265.5 -91t-111.5 -232z" />
<glyph unicode=":" horiz-adv-x="655" d="M217 88q0 52 30.5 82.5t80.5 30.5t80 -30.5t30 -82.5q0 -53 -30 -83t-80 -30t-80.5 30t-30.5 83zM217 983q0 53 30.5 84t80.5 31t80 -31t30 -84q0 -52 -30 -81.5t-80 -29.5t-80.5 29.5t-30.5 81.5z" />
<glyph unicode=";" horiz-adv-x="655" d="M207 -182q90 90 100 182q-33 5 -59.5 31.5t-26.5 64.5q0 44 28.5 69t72.5 25q48 0 74 -31.5t26 -84.5q0 -72 -38 -149t-128 -144zM217 981q0 53 30.5 84t80.5 31t80 -31t30 -84q0 -52 -30 -81.5t-80 -29.5t-80.5 29.5t-30.5 81.5z" />
<glyph unicode="&#x3c;" horiz-adv-x="1024" d="M61 543v102l756 475l64 -104l-686 -422l677 -424l-59 -98z" />
<glyph unicode="=" horiz-adv-x="1421" d="M233 371v104h943v-104h-943zM233 784v107h943v-107h-943z" />
<glyph unicode="&#x3e;" horiz-adv-x="1019" d="M143 1016l62 106l753 -479v-100l-749 -469l-62 96l678 424z" />
<glyph unicode="?" horiz-adv-x="1085" d="M76 1323q70 58 180 96.5t236 38.5q190 0 301.5 -96.5t111.5 -235.5q0 -66 -22 -124t-58 -102t-78.5 -85t-85.5 -81.5t-79 -83t-58 -97.5t-22 -117h-115q0 71 22 133t57 107.5t77.5 87t84.5 80t77 77t57 87.5t22 104q0 113 -77.5 175.5t-210.5 62.5q-214 0 -357 -111z M344 90q0 52 30.5 82.5t80.5 30.5t79 -30.5t29 -82.5q0 -53 -29 -83t-79 -30t-80.5 30t-30.5 83z" />
<glyph unicode="@" horiz-adv-x="1779" d="M113 475q0 245 114.5 433.5t313.5 289t450 100.5q145 0 267.5 -43t214 -124t143 -206.5t51.5 -283.5q0 -146 -47.5 -262t-136.5 -183t-205 -67q-154 0 -211 113q-108 -113 -270 -113q-54 0 -102.5 20t-88 59t-63 105.5t-23.5 151.5q0 196 124.5 312t322.5 116 q139 0 254 -49l-64 -424q-14 -94 21.5 -140.5t101.5 -46.5q121 0 194.5 109t73.5 303q0 136 -44 241t-124 171t-187 99.5t-237 33.5q-151 0 -281 -48.5t-227.5 -139.5t-153.5 -232t-56 -315q0 -135 31.5 -241t86.5 -176t134 -115.5t169.5 -65t198.5 -19.5q68 0 176 15.5 t180 37.5l31 -98q-79 -27 -185 -44t-179 -17q-135 0 -246.5 22t-210 75.5t-166 137t-106.5 212.5t-39 296zM643 475q0 -125 52.5 -183.5t138.5 -58.5q125 0 206 111q0 45 4 70l50 352l-8 2q-7 3 -20.5 6t-31 6t-41.5 5.5t-49 2.5q-138 0 -219.5 -88t-81.5 -225z" />
<glyph unicode="A" horiz-adv-x="1392" d="M82 0l532 1434h166l533 -1434h-137l-140 383h-684l-141 -383h-129zM391 494h606l-301 831z" />
<glyph unicode="B" horiz-adv-x="1284" d="M184 0v1434h412q217 0 332.5 -89.5t115.5 -252.5q0 -115 -66 -206t-149 -132q39 -6 79.5 -23t82.5 -48t74.5 -71t53 -98.5t20.5 -124.5q0 -102 -37.5 -178t-105 -121.5t-154.5 -67.5t-193 -22h-465zM305 106h328q193 0 289 74t96 203q0 291 -375 291h-338v-568zM305 784 h266q161 0 256 77t95 208q0 258 -357 258h-260v-543z" />
<glyph unicode="C" horiz-adv-x="1345" d="M143 711v9q0 148 33 270q34 126 94 212t144.5 144.5t181 85t205.5 26.5q275 0 448 -127l-65 -90q-168 109 -393 109q-108 0 -200.5 -37.5t-166 -112.5t-116 -200.5t-42.5 -288.5q0 -132 28 -239t76.5 -178.5t116.5 -119.5t145 -68q73 -20 157 -20h8q246 3 417 143l70 -88 q-196 -166 -487 -166q-108 0 -203 25.5t-178 82.5t-142.5 141.5t-94.5 208.5t-36 278z" />
<glyph unicode="D" horiz-adv-x="1400" d="M184 0v1434h394q113 0 211.5 -23.5t185 -77t148 -134t97 -200.5t35.5 -270q0 -149 -35.5 -271t-97 -206t-147.5 -141.5t-185.5 -84t-211.5 -26.5h-394zM305 115h291q259 0 399 155t140 459t-139 451t-400 147h-291v-1212z" />
<glyph unicode="E" horiz-adv-x="1167" d="M184 0v1434h881v-107h-760v-536h678v-109h-678v-567h760v-115h-881z" />
<glyph unicode="F" horiz-adv-x="1032" d="M184 0v1432h799v-109h-678v-563h594v-109h-594v-651h-121z" />
<glyph unicode="G" horiz-adv-x="1519" d="M143 731q0 141 32.5 259.5t90.5 204t139 145t178.5 89t207.5 29.5q94 0 172.5 -14.5t139 -42.5t101.5 -55.5t86 -65.5l-76 -84q-188 154 -434 154q-231 0 -372.5 -160.5t-141.5 -458.5q0 -157 38.5 -278.5t109 -199t167 -117.5t214.5 -40q137 0 245 51.5t162 120.5v398 h-471v108h592v-553q-88 -113 -226 -178.5t-323 -65.5q-130 0 -241.5 44.5t-200 133.5t-139 236.5t-50.5 339.5z" />
<glyph unicode="H" horiz-adv-x="1447" d="M184 0v1434h121v-650h836v650h121v-1434h-121v676h-836v-676h-121z" />
<glyph unicode="I" horiz-adv-x="530" d="M205 0v1434h121v-1434h-121z" />
<glyph unicode="J" horiz-adv-x="927" d="M106 -12l13 112q51 -6 80 -6q88 0 147 7t116 29.5t90 63.5t53 111t20 170v959h116v-990q0 -114 -26 -198.5t-69 -135.5t-108 -82t-132 -42t-152 -11q-81 0 -148 13z" />
<glyph unicode="K" horiz-adv-x="1255" d="M184 0v1434h121v-742l690 742h150l-643 -676l692 -758h-164l-612 668l-113 -119v-549h-121z" />
<glyph unicode="L" horiz-adv-x="1120" d="M184 0v1434h121v-1328h707v-106h-828z" />
<glyph unicode="M" horiz-adv-x="1773" d="M184 0v1434h129l582 -1262l565 1262h129v-1434h-121v1155h-10l-538 -1155h-66l-539 1159h-10v-1159h-121z" />
<glyph unicode="N" horiz-adv-x="1488" d="M184 0v1434h109l891 -1219v1219h121v-1434h-107l-893 1221v-1221h-121z" />
<glyph unicode="O" horiz-adv-x="1628" d="M143 721q0 150 38.5 275t103.5 209t152 142t182 84.5t196 26.5t196 -26.5t181.5 -84.5t151 -142t103 -209t38.5 -275t-38.5 -275.5t-103 -211.5t-151 -145t-181.5 -86.5t-196 -27.5t-196 27.5t-182 86.5t-152 145t-103.5 211.5t-38.5 275.5zM266 723q0 -152 43.5 -275.5 t118 -201.5t172 -120t207.5 -42q89 0 170.5 25t151.5 77t122 126.5t81.5 180t29.5 230.5q0 154 -44.5 276t-121 197.5t-173.5 114.5t-208 39q-89 0 -169.5 -24t-150 -75t-120.5 -124t-80 -176.5t-29 -227.5z" />
<glyph unicode="P" horiz-adv-x="1122" d="M184 0v1434h408q228 0 348.5 -110.5t120.5 -299.5q0 -193 -122 -318.5t-345 -125.5h-289v-580h-121zM305 688h273q172 0 264 87.5t92 248.5q0 157 -90.5 230t-265.5 73h-273v-639z" />
<glyph unicode="Q" horiz-adv-x="1628" d="M143 721q0 150 38.5 275t103.5 209t152 142t182 84.5t196 26.5t196 -26.5t181.5 -84.5t151 -142t103 -209t38.5 -275q0 -147 -36.5 -270.5t-100.5 -210t-145 -144.5t-177 -88l416 -203l-58 -106l-532 276l4 2q-12 -2 -41 -2q-101 0 -196 27.5t-182 86.5t-152 145 t-103.5 211.5t-38.5 275.5zM266 723q0 -152 43.5 -275.5t118 -201.5t172 -120t207.5 -42q89 0 170.5 25t151.5 77t122 126.5t81.5 180t29.5 230.5q0 154 -44.5 276t-121 197.5t-173.5 114.5t-208 39q-89 0 -169.5 -24t-150 -75t-120.5 -124t-80 -176.5t-29 -227.5z" />
<glyph unicode="R" horiz-adv-x="1296" d="M184 0v1434h465q107 0 191 -22t137 -58.5t87 -89t48 -109.5t14 -123q0 -157 -74.5 -273t-228.5 -157l369 -602h-137l-355 584h-34h-361v-584h-121zM305 692h379q152 0 233.5 91.5t81.5 230.5q0 157 -86 235t-284 78h-324v-635z" />
<glyph unicode="S" horiz-adv-x="1155" d="M113 106l51 99q89 -54 199 -84.5t210 -30.5q190 0 280.5 74t90.5 196q0 46 -18 85t-47 69t-78.5 59.5t-99.5 52t-123 50.5q-64 25 -98.5 40t-89 41t-84.5 47.5t-67 54.5t-56 66.5t-32.5 79t-13.5 97.5q0 155 121.5 255.5t327.5 100.5q102 0 193 -22.5t139 -46t108 -60.5 l-53 -94q-185 119 -383 119q-152 0 -241 -68t-89 -190q0 -30 7.5 -57t24 -51t35 -43.5t49 -39.5t57 -35.5t68.5 -34t73.5 -32t80.5 -33.5q26 -11 39 -16q93 -39 153.5 -72.5t114 -78.5t78.5 -101t25 -127q0 -178 -127.5 -289t-355.5 -111q-121 0 -247 35t-222 96z" />
<glyph unicode="T" horiz-adv-x="1310" d="M102 1325v109h1106v-109h-493v-1325h-121v1325h-492z" />
<glyph unicode="U" horiz-adv-x="1427" d="M184 516v918h121v-932q0 -194 107.5 -302t302.5 -108q194 0 300.5 108t106.5 302v932h121v-918q0 -142 -43 -249t-118 -170t-167.5 -93.5t-199.5 -30.5t-200 30.5t-168.5 93.5t-119 170.5t-43.5 248.5z" />
<glyph unicode="V" horiz-adv-x="1419" d="M82 1434h131l504 -1338l487 1338h131l-540 -1434h-168z" />
<glyph unicode="W" horiz-adv-x="2062" d="M61 1434h129l379 -1289l394 1289h145l385 -1287l383 1287h127l-436 -1434h-150l-389 1260l-385 -1260h-149z" />
<glyph unicode="X" horiz-adv-x="1386" d="M70 0l495 743l-473 691h166l385 -598l383 598h164l-477 -680l536 -754h-164l-452 651l-414 -651h-149z" />
<glyph unicode="Y" horiz-adv-x="1331" d="M70 1434h145l422 -750l416 750h141l-500 -861v-573h-121v573z" />
<glyph unicode="Z" horiz-adv-x="1353" d="M137 0v113l885 1212h-836v109h973v-103l-885 -1222h926v-109h-1063z" />
<glyph unicode="[" horiz-adv-x="571" d="M164 -229v1863h282v-102h-163v-1657h163v-104h-282z" />
<glyph unicode="\" horiz-adv-x="710" d="M20 1540h123l488 -1622h-123z" />
<glyph unicode="]" horiz-adv-x="571" d="M123 -125h166v1657h-166v102h283v-1863h-283v104z" />
<glyph unicode="^" horiz-adv-x="1419" d="M141 864l447 676h155l443 -676h-135l-381 582h-11l-383 -582h-135z" />
<glyph unicode="_" horiz-adv-x="1482" d="M154 -18h1183v-88h-1183v88z" />
<glyph unicode="`" horiz-adv-x="612" d="M137 1434h182l158 -226h-108z" />
<glyph unicode="a" horiz-adv-x="1124" d="M113 283q0 66 23 118t62 86t93.5 57t115.5 32.5t130 9.5q70 0 144.5 -6t113.5 -12l39 -7v172q0 142 -70.5 200t-202.5 58q-104 0 -181.5 -27.5t-150.5 -84.5l-59 79q171 140 395 140q204 0 295.5 -87t91.5 -288v-551q0 -90 70 -90q5 0 12.5 0.5t12.5 1t6 0.5l-17 -78 q-18 -12 -65 -12q-55 0 -83.5 28t-45.5 99q-118 -146 -346 -146q-176 0 -279.5 76t-103.5 232zM236 285q0 -73 39 -120.5t95.5 -65t129.5 -17.5q110 0 197 42.5t137 123.5v203q-159 26 -287 26q-311 0 -311 -192z" />
<glyph unicode="b" horiz-adv-x="1228" d="M184 0v1540h119v-606h4q64 78 158 121t199 43q204 0 328 -143t124 -398q0 -275 -135 -428.5t-365 -153.5q-92 0 -176 37.5t-141 108.5h-6l-25 -121h-84zM303 250q47 -79 131 -123.5t195 -44.5q159 0 261.5 128.5t102.5 346.5q0 203 -95 318.5t-243 115.5q-99 0 -183 -47 t-169 -158v-536z" />
<glyph unicode="c" horiz-adv-x="1097" d="M113 543q0 131 42 238t113 175t163 105t194 37q227 0 379 -131l-70 -84q-73 55 -139.5 81.5t-167.5 26.5q-175 0 -283 -116.5t-108 -331.5t113 -338t284 -123t325 121l68 -80q-65 -61 -164.5 -104.5t-230.5 -43.5q-110 0 -204 37.5t-164 107.5t-110 179t-40 244z" />
<glyph unicode="d" horiz-adv-x="1218" d="M113 535q0 110 25.5 203t69 158.5t103 111.5t127 68t140.5 22q217 0 335 -123v565h119v-1540h-82l-24 127h-6q-59 -64 -148 -108t-184 -44q-71 0 -137 18.5t-128 61t-108 105.5t-74 159.5t-28 215.5zM236 535q0 -114 31.5 -203.5t83.5 -142.5t114 -80t129 -27 q191 0 319 166v600q-137 143 -317 143q-69 0 -131 -26t-114.5 -78.5t-83.5 -143.5t-31 -208z" />
<glyph unicode="e" horiz-adv-x="1204" d="M113 530q0 270 133 419t354 149q113 0 204 -43.5t147.5 -117t86 -165t29.5 -192.5q0 -58 -6 -105h-823q42 -393 389 -393q206 0 352 127l72 -76q-85 -75 -190.5 -116.5t-254.5 -41.5q-98 0 -185.5 34t-157 100.5t-110 175t-40.5 245.5zM233 582h725q-8 182 -103 295.5 t-251 113.5q-165 0 -266 -109t-105 -300z" />
<glyph unicode="f" horiz-adv-x="686" d="M82 973v100h166v211q0 147 78 214t211 67q81 0 147 -19l-22 -102q-49 14 -109 14q-186 0 -186 -166v-219h282v-100h-282v-973h-119v973h-166z" />
<glyph unicode="g" d="M113 559q0 106 30.5 196.5t81.5 152.5t116.5 105.5t134.5 64t138 20.5q114 0 191 -28.5t141 -82.5h6l43 86h66v-1042q0 -228 -122.5 -340.5t-334.5 -112.5q-235 0 -401 129l59 92q140 -108 334 -108q72 0 132.5 16.5t109 51t76.5 93t28 136.5v178q-80 -78 -159 -107.5 t-189 -29.5q-93 0 -178 33.5t-153.5 97t-109 167t-40.5 232.5zM240 565q0 -208 106.5 -319t274.5 -111q190 0 321 162v563q-110 131 -313 131q-74 0 -142.5 -27t-124 -78t-89 -134t-33.5 -187z" />
<glyph unicode="h" horiz-adv-x="1210" d="M184 0v1540h117v-625q82 97 166.5 140t191.5 43q72 0 136.5 -22.5t116 -64.5t82 -110.5t30.5 -152.5v-748h-119v717q0 78 -23 134t-63.5 85t-87 42t-102.5 13q-189 0 -326 -217v-774h-119z" />
<glyph unicode="i" horiz-adv-x="487" d="M154 1343q0 46 26.5 69.5t63.5 23.5t63.5 -23.5t26.5 -69.5t-26.5 -70t-63.5 -24t-63.5 24t-26.5 70zM186 0v1073h115v-1073h-115z" />
<glyph unicode="j" horiz-adv-x="505" d="M-131 -403l20 102q50 -14 101 -14q108 0 161.5 49.5t53.5 169.5v1169h119v-1214q0 -75 -25.5 -131t-70.5 -88t-101 -47t-123 -15q-79 0 -135 19zM172 1343q0 47 25.5 70t64.5 23q37 0 63.5 -23.5t26.5 -69.5t-26.5 -70t-63.5 -24q-38 0 -64 23.5t-26 70.5z" />
<glyph unicode="k" horiz-adv-x="1058" d="M184 0v1540h119v-1030l477 563h164l-407 -457l491 -616h-164l-407 524l-154 -172v-352h-119z" />
<glyph unicode="l" horiz-adv-x="487" d="M184 0v1540h119v-1540h-119z" />
<glyph unicode="m" horiz-adv-x="1812" d="M184 0v1073h95l24 -158h4q49 66 91.5 103.5t102 58.5t138.5 21q211 0 293 -201q89 116 173.5 158.5t209.5 42.5q137 0 224 -96.5t87 -276.5v-725h-119v725q0 133 -55.5 199.5t-153.5 66.5q-108 0 -182.5 -51.5t-150.5 -165.5v-774h-119v733q0 72 -19 124.5t-52 80.5 t-71 40.5t-83 12.5q-97 0 -181 -61t-137 -156v-774h-119z" />
<glyph unicode="n" horiz-adv-x="1210" d="M184 0v1073h88l19 -168h2q76 92 165 142.5t210 50.5q174 0 265 -88t91 -262v-748h-119v717q0 152 -60.5 213t-176.5 61q-228 0 -369 -221v-770h-115z" />
<glyph unicode="o" d="M113 537q0 115 28 209t75.5 158.5t113.5 109t139.5 64.5t155.5 20q80 0 153.5 -20t138.5 -64.5t112.5 -109t75.5 -158.5t28 -209q0 -142 -42 -252.5t-114 -176.5t-161.5 -99.5t-190.5 -33.5q-103 0 -193 33.5t-162.5 99.5t-114.5 176.5t-42 252.5zM236 537 q0 -211 105 -333t284 -122q174 0 279.5 122.5t105.5 332.5t-105.5 332t-279.5 122q-179 0 -284 -121.5t-105 -332.5z" />
<glyph unicode="p" horiz-adv-x="1204" d="M184 -422v1495h86l25 -168h6q68 95 152.5 144t201.5 49q93 0 171 -32.5t138 -96.5t94 -168.5t34 -239.5q0 -129 -41.5 -241t-109 -186.5t-154.5 -116.5t-179 -42q-99 0 -169.5 20t-135.5 62v-479h-119zM303 176q65 -53 125.5 -73.5t157.5 -20.5q68 0 134.5 31.5t122.5 89 t91 150t35 204.5q0 113 -28 199t-75 136t-104 74.5t-121 24.5q-105 0 -187 -60.5t-151 -182.5v-572z" />
<glyph unicode="q" horiz-adv-x="1224" d="M113 537q0 112 29.5 206t79 158.5t115 109.5t138 66t148.5 21q176 0 305 -111h6l49 86h55v-1495h-118v496q-136 -99 -318 -99q-70 0 -138.5 21t-132.5 66.5t-112 110t-77 158.5t-29 206zM236 532q0 -96 25 -175t64.5 -128.5t90.5 -83t100 -47.5t96 -14q100 0 170.5 31 t137.5 84v663q-130 127 -293 127q-80 0 -149.5 -27.5t-124 -82t-86 -144t-31.5 -203.5z" />
<glyph unicode="r" horiz-adv-x="780" d="M184 0v1073h90l23 -158h6q40 91 120.5 137t188.5 46q64 0 111 -17l-27 -114q-54 14 -108 14q-201 0 -289 -231v-750h-115z" />
<glyph unicode="s" horiz-adv-x="960" d="M106 94l52 103q56 -53 139 -84t160 -31q135 0 208.5 58t73.5 143q0 21 -4 38.5t-14.5 33t-19.5 27t-30 23.5t-34 19.5t-42.5 18.5t-45 16.5t-52.5 18t-55 18.5q-67 24 -107.5 41t-84.5 43.5t-67.5 55.5t-38.5 71.5t-15 97.5q0 134 105.5 213.5t265.5 79.5 q102 0 194.5 -31t155.5 -80l-59 -90q-151 94 -293 94q-114 0 -183 -51.5t-69 -130.5q0 -37 15.5 -67t35.5 -49.5t59.5 -38.5t67 -28.5t78.5 -25.5q7 -2 22 -7q151 -47 212 -85q126 -77 126 -217t-105 -228t-296 -88q-93 0 -190.5 31.5t-164.5 87.5z" />
<glyph unicode="t" horiz-adv-x="727" d="M61 973v100h189v176l65 99h54v-275h264v-100h-264v-783q0 -57 26 -82.5t64 -25.5q64 0 143 37l37 -94q-91 -50 -180 -50q-100 0 -154.5 50.5t-54.5 150.5v797h-189z" />
<glyph unicode="u" horiz-adv-x="1200" d="M184 358v715h119v-688q0 -162 62.5 -232.5t164.5 -70.5q59 0 111.5 17t99.5 50.5t79.5 63.5t74.5 76v784h119v-1073h-92l-25 162h-6q-76 -92 -165.5 -139.5t-209.5 -47.5q-69 0 -126.5 20.5t-105 63.5t-74 119.5t-26.5 179.5z" />
<glyph unicode="v" horiz-adv-x="1042" d="M37 1073h123l358 -948l365 948h123l-431 -1073h-126z" />
<glyph unicode="w" horiz-adv-x="1572" d="M37 1073h127l262 -911l305 911h92l293 -917l305 917h115l-373 -1073h-98l-295 877l-301 -877h-98z" />
<glyph unicode="x" horiz-adv-x="974" d="M20 0v2l398 559l-367 508v4h146l290 -428l287 428h146v-2l-365 -514l397 -555v-2h-147l-316 471l-327 -471h-142z" />
<glyph unicode="y" horiz-adv-x="1116" d="M61 1073h123l389 -975h9l358 975h115l-424 -1139q-132 -356 -375 -356q-78 0 -139 21l22 94q50 -17 107 -17q78 0 146 61.5t106 166.5l24 65z" />
<glyph unicode="z" horiz-adv-x="956" d="M82 0v96l631 869h-609v108h752v-106l-643 -863h661v-104h-792z" />
<glyph unicode="{" horiz-adv-x="796" d="M154 686v88q80 15 133 72.5t53 154.5v252q0 151 91.5 245.5t244.5 94.5v-80q-94 -12 -148.5 -79t-54.5 -174v-293q0 -90 -60 -156.5t-118 -75.5v-8q57 -9 117.5 -78.5t60.5 -154.5v-295q0 -105 55 -174.5t148 -81.5v-76q-156 0 -246 93t-90 245v252q0 104 -51 161.5 t-135 67.5z" />
<glyph unicode="|" horiz-adv-x="462" d="M184 -143v1853h95v-1853h-95z" />
<glyph unicode="}" horiz-adv-x="796" d="M121 -57v-76q156 0 246 93t90 245v252q0 104 51 161.5t135 67.5v88q-80 15 -133 72.5t-53 154.5v252q0 151 -91.5 245.5t-244.5 94.5v-80q94 -12 148.5 -79t54.5 -174v-293q0 -90 60 -156.5t118 -75.5v-8q-57 -9 -117.5 -78.5t-60.5 -154.5v-295q0 -105 -55 -174.5 t-148 -81.5z" />
<glyph unicode="~" horiz-adv-x="1306" d="M143 553q31 101 94.5 159t145.5 58q75 0 239.5 -44t225.5 -44q96 0 143 96h123q-32 -112 -100 -164.5t-158 -52.5q-79 0 -239 43t-234 43q-51 0 -82.5 -24.5t-54.5 -69.5h-103z" />
<glyph unicode="&#xa1;" horiz-adv-x="641" d="M180 958q0 53 30.5 83t80.5 30t79 -30t29 -83q0 -52 -29 -82t-79 -30t-80.5 30t-30.5 82zM193 -389l38 1038h105l39 -1038h-182z" />
<glyph unicode="&#xa2;" horiz-adv-x="1097" d="M113 731q0 237 125 381.5t315 169.5v217h119l-2 -215q199 -11 334 -129l-70 -84q-74 56 -140 82.5t-167 26.5q-175 0 -283 -117t-108 -332t113 -338t284 -123t325 121l68 -80q-54 -53 -140.5 -94t-195.5 -51l2 -195h-119l2 195q-206 20 -334 167t-128 398z" />
<glyph unicode="&#xa3;" horiz-adv-x="1359" d="M242 94q74 31 111.5 99t37.5 159v330h-135v113h135v309q0 89 27.5 158.5t76 111.5t110 63t132.5 21q226 0 381 -123l-67 -100q-83 57 -149 81.5t-154 24.5q-224 0 -224 -254v-292h461v-113h-461v-317q0 -102 -30 -159.5t-88 -101.5q80 21 143 21q66 0 163.5 -15.5 t159.5 -15.5q102 0 195 19l27 -117q-99 -21 -230 -21q-76 0 -169 12.5t-148 12.5q-163 0 -258 -25z" />
<glyph unicode="&#xa4;" horiz-adv-x="1249" d="M113 258l151 145q-92 115 -92 283q0 165 90 279l-147 147l84 86l153 -154q115 76 273 76t274 -80l154 154l84 -82l-152 -149q88 -118 88 -277q0 -165 -86 -278l150 -148l-82 -86l-154 152q-115 -76 -276 -76q-162 0 -275 78l-151 -154zM313 686q0 -149 89.5 -235 t222.5 -86q130 0 218.5 86.5t88.5 234.5q0 149 -88 234.5t-219 85.5q-133 0 -222.5 -85t-89.5 -235z" />
<glyph unicode="&#xa5;" horiz-adv-x="1341" d="M111 1434h157l408 -695l418 695h141l-426 -705h340v-119h-412l-2 -2v-137h414v-119h-414v-352h-121v352h-415v119h415v137l-2 2h-413v119h342z" />
<glyph unicode="&#xa6;" horiz-adv-x="462" d="M184 -152v766h95v-766h-95zM184 942v776h95v-776h-95z" />
<glyph unicode="&#xa7;" horiz-adv-x="1003" d="M154 37l36 88q107 -59 281 -59q121 0 182.5 46t61.5 132q0 37 -15.5 64.5t-38.5 44.5t-61 31t-71 21.5t-82.5 19t-81.5 21.5q-98 32 -154.5 92.5t-56.5 170.5q0 92 55 158.5t156 90.5q-92 30 -147.5 93.5t-55.5 144.5q0 125 92.5 193.5t257.5 68.5q160 0 276 -57l-32 -82 q-96 41 -242 41q-120 0 -182 -45t-62 -119q0 -38 15 -68t39.5 -49.5t60.5 -34.5t73.5 -25t82.5 -21q3 0 4.5 -0.5t4.5 -1t5 -1.5q44 -12 71.5 -21t65.5 -24.5t61 -34t45.5 -44.5t33 -62t10.5 -80q0 -179 -219 -256q107 -32 159 -86t52 -143q0 -124 -97.5 -199.5 t-269.5 -75.5q-174 0 -313 68zM268 715q0 -88 61.5 -136.5t168.5 -48.5q106 0 167.5 48.5t61.5 136.5q0 85 -62 134.5t-167 49.5q-106 0 -168 -49.5t-62 -134.5z" />
<glyph unicode="&#xa8;" horiz-adv-x="612" d="M55 1348q0 42 23.5 66t62.5 24q42 0 66 -24t24 -66q0 -44 -24 -67.5t-66 -23.5q-39 0 -62.5 24t-23.5 67zM383 1348q0 42 24 66t64 24q39 0 62.5 -24t23.5 -66q0 -43 -23.5 -67t-62.5 -24q-41 0 -64.5 23.5t-23.5 67.5z" />
<glyph unicode="&#xa9;" horiz-adv-x="1701" d="M113 719q0 167 60 308.5t162 235.5t235.5 146.5t281.5 52.5q147 0 280.5 -52.5t235 -146.5t161.5 -235t60 -309t-60 -309.5t-161 -236t-235 -147.5t-281 -53t-281 53t-236 147.5t-162 236.5t-60 309zM215 719q0 -145 51 -268t138.5 -205t203 -128t244.5 -46t244.5 46 t202 128t137.5 205t51 268q0 146 -51 268.5t-137.5 204t-202 127t-244.5 45.5t-244.5 -45.5t-203 -127t-138.5 -204t-51 -268.5zM485 729q0 97 30.5 172t82 119.5t114.5 67t134 22.5q162 0 262 -90l-49 -82q-39 28 -60 40t-61 23t-92 11q-116 0 -187 -74t-71 -209 q0 -133 77.5 -209t194.5 -76q125 0 219 80l49 -82q-105 -96 -274 -96q-76 0 -141 22.5t-117 68t-81.5 120.5t-29.5 172z" />
<glyph unicode="&#xaa;" horiz-adv-x="817" d="M141 997q0 84 61.5 132.5t159.5 48.5q83 0 170 -11v54q0 153 -143 153q-83 0 -178 -43l-35 62q86 61 217 61q111 0 169.5 -55t58.5 -164v-311q0 -50 45 -50h16l-8 -59q-22 -6 -49 -6q-71 0 -90 55q-74 -59 -193 -59q-85 0 -143 51.5t-58 140.5zM231 993q0 -50 32.5 -78 t86.5 -28q102 0 178 63v135q-56 11 -153 11q-67 0 -105.5 -26.5t-38.5 -76.5z" />
<glyph unicode="&#xab;" horiz-adv-x="913" d="M61 522l297 363l84 -66l-245 -295l243 -295l-78 -67zM389 522l297 363l84 -66l-244 -295l244 -295l-80 -67z" />
<glyph unicode="&#xac;" horiz-adv-x="1386" d="M186 688v115h1014v-473h-129v358h-885z" />
<glyph unicode="&#xad;" horiz-adv-x="929" d="M184 541v106h561v-106h-561z" />
<glyph unicode="&#xae;" horiz-adv-x="1701" d="M113 719q0 167 60 308.5t162 235.5t235.5 146.5t281.5 52.5q147 0 280.5 -52.5t235 -146.5t161.5 -235t60 -309t-60 -309.5t-161 -236t-235 -147.5t-281 -53t-281 53t-236 147.5t-162 236.5t-60 309zM215 719q0 -145 51 -268t138.5 -205t203 -128t244.5 -46t244.5 46 t202 128t137.5 205t51 268q0 146 -51 268.5t-137.5 204t-202 127t-244.5 45.5t-244.5 -45.5t-203 -127t-138.5 -204t-51 -268.5zM612 365v733h246q72 0 123 -17t78 -47.5t39 -65t12 -75.5q0 -71 -37.5 -122.5t-95.5 -80.5l172 -325h-123l-149 292h-164v-292h-101zM713 752 h139q67 0 108 37.5t41 93.5q0 121 -147 121h-141v-252z" />
<glyph unicode="&#xaf;" horiz-adv-x="612" d="M90 1343v91h432v-91h-432z" />
<glyph unicode="&#xb0;" horiz-adv-x="747" d="M113 1212q0 119 76.5 182.5t183.5 63.5q108 0 184 -63.5t76 -182.5q0 -120 -75.5 -181.5t-184.5 -61.5q-69 0 -126 24.5t-95.5 81t-38.5 137.5zM233 1212q0 -69 39 -104t101 -35q66 0 105.5 35t39.5 104t-39.5 104.5t-105.5 35.5q-62 0 -101 -35.5t-39 -104.5z" />
<glyph unicode="&#xb1;" horiz-adv-x="1263" d="M125 43v115h1014v-115h-1014zM125 848v113h450v471h113v-471h451v-113h-451v-471h-113v471h-450z" />
<glyph unicode="&#xb4;" horiz-adv-x="612" d="M139 1208l156 226h180l-223 -226h-113z" />
<glyph unicode="&#xb6;" horiz-adv-x="1042" d="M154 1112q0 149 89 235.5t277 86.5h338v-1434h-121v1327h-121v-1327h-120v772q-342 31 -342 340z" />
<glyph unicode="&#xb7;" horiz-adv-x="600" d="M184 631q0 58 33.5 87.5t81.5 29.5t81.5 -29.5t33.5 -87.5q0 -60 -33 -90.5t-82 -30.5t-82 30.5t-33 90.5z" />
<glyph unicode="&#xb8;" horiz-adv-x="612" d="M174 -119l84 137h84l-63 -94q66 4 112.5 -39t46.5 -106q0 -81 -61 -123.5t-162 -52.5l-27 73q75 11 111.5 35t36.5 68q0 27 -19 44t-47 17q-23 0 -39 -8z" />
<glyph unicode="&#xba;" horiz-adv-x="823" d="M113 1128q0 82 25.5 146t68.5 102.5t95.5 58t111.5 19.5q57 0 109.5 -19.5t96 -58t69.5 -102.5t26 -146t-26 -146t-69.5 -102t-96 -57.5t-109.5 -19.5q-59 0 -111.5 19.5t-95.5 57.5t-68.5 102t-25.5 146zM203 1128q0 -113 58 -178t153 -65q94 0 152.5 65.5t58.5 177.5 q0 111 -59 178.5t-152 67.5q-94 0 -152.5 -67t-58.5 -179z" />
<glyph unicode="&#xbb;" horiz-adv-x="913" d="M143 229l246 295l-246 295l86 66l297 -363l-301 -360zM473 229l246 295l-246 295l84 66l295 -363l-299 -360z" />
<glyph unicode="&#xbc;" horiz-adv-x="2060" d="M158 1288l252 129h79v-702h173v-107h-463v107h172v559l-164 -78zM696 -244l576 1768h94l-573 -1768h-97zM1337 217v100l412 494h92v-494h123v-100h-123v-217h-117v217h-387zM1473 317h251v308z" />
<glyph unicode="&#xbd;" horiz-adv-x="2060" d="M158 1288l252 129h79v-702h173v-107h-463v107h172v559l-164 -78zM696 -244l576 1768h94l-573 -1768h-97zM1358 719q126 102 280 102q127 0 205 -67.5t78 -169.5q0 -182 -244 -371l-141 -111h408v-106h-570v94l236 193q182 149 182 292q0 63 -45 100.5t-117 37.5 q-60 0 -115.5 -23.5t-93.5 -56.5z" />
<glyph unicode="&#xbe;" horiz-adv-x="2060" d="M98 682l70 94q98 -84 223 -84q101 0 151 42.5t50 105.5q0 73 -48 107t-157 34h-72v106h56q86 0 137 31.5t51 91.5q0 52 -38.5 82.5t-119.5 30.5q-111 0 -206 -88l-66 82q117 117 277 117q134 0 207 -60t73 -145q0 -58 -38 -109t-97 -71v-7q75 -14 122.5 -66t47.5 -134 q0 -113 -91 -186.5t-233 -73.5q-169 0 -299 100zM696 -244l576 1768h94l-573 -1768h-97zM1337 217v100l412 494h92v-494h123v-100h-123v-217h-117v217h-387zM1473 317h251v308z" />
<glyph unicode="&#xbf;" horiz-adv-x="1161" d="M129 -27q0 66 22 124t58 102t78.5 85.5t85.5 82t79 83t58 97.5t22 117h115q0 -71 -22 -133t-57 -107.5t-77 -87t-84.5 -80t-77.5 -77t-57 -87.5t-22 -104q0 -113 77.5 -175.5t211.5 -62.5q213 0 356 111l63 -84q-70 -58 -179.5 -96.5t-235.5 -38.5q-190 0 -302 96 t-112 235zM471 1010q0 53 29.5 82.5t79.5 29.5t80 -29.5t30 -82.5q0 -52 -30 -82.5t-80 -30.5t-79.5 30.5t-29.5 82.5z" />
<glyph unicode="&#xc0;" horiz-adv-x="1392" d="M82 0l532 1434h166l533 -1434h-137l-140 383h-684l-141 -383h-129zM391 494h606l-301 831zM442 1794h183l157 -225h-108z" />
<glyph unicode="&#xc1;" horiz-adv-x="1392" d="M82 0l532 1434h166l533 -1434h-137l-140 383h-684l-141 -383h-129zM391 494h606l-301 831zM625 1569l155 225h181l-224 -225h-112z" />
<glyph unicode="&#xc2;" horiz-adv-x="1392" d="M82 0l532 1434h166l533 -1434h-137l-140 383h-684l-141 -383h-129zM391 494h606l-301 831zM434 1591l230 217h67l217 -217h-133l-123 109l-119 -109h-139z" />
<glyph unicode="&#xc3;" horiz-adv-x="1392" d="M82 0l532 1434h166l533 -1434h-137l-140 383h-684l-141 -383h-129zM391 494h606l-301 831zM414 1636q26 76 74.5 112t103.5 36q45 0 112 -37t99 -37q59 0 100 88l66 -43q-24 -70 -67 -108.5t-101 -38.5q-43 0 -106 36.5t-101 36.5q-41 0 -66.5 -20t-46.5 -59z" />
<glyph unicode="&#xc4;" horiz-adv-x="1392" d="M82 0l532 1434h166l533 -1434h-137l-140 383h-684l-141 -383h-129zM391 494h606l-301 831zM449 1708q0 42 23.5 66t62.5 24q42 0 66 -24t24 -66q0 -44 -24 -67t-66 -23q-39 0 -62.5 23.5t-23.5 66.5zM776 1708q0 42 24 66t64 24q39 0 62.5 -24t23.5 -66 q0 -43 -23.5 -66.5t-62.5 -23.5q-41 0 -64.5 23.5t-23.5 66.5z" />
<glyph unicode="&#xc5;" horiz-adv-x="1392" d="M82 0l532 1434h166l533 -1434h-137l-140 383h-684l-141 -383h-129zM391 494h606l-301 831zM555 1653q0 69 44 105t106 36q60 0 102.5 -36t42.5 -105t-42.5 -104.5t-102.5 -35.5q-63 0 -106.5 35.5t-43.5 104.5zM633 1653q0 -33 20.5 -53.5t51.5 -20.5t50 20t19 54t-19 55 t-50 21q-32 0 -52 -21t-20 -55z" />
<glyph unicode="&#xc6;" horiz-adv-x="1769" d="M82 0l709 1434h876v-107h-686v-543h612v-108h-612v-561h686v-115h-805v311h-485l-150 -311h-145zM430 422h432v881h-8z" />
<glyph unicode="&#xc7;" horiz-adv-x="1345" d="M143 711q-1 154 33 279.5t94 211.5t144.5 144.5t181 85t205.5 26.5q275 0 448 -127l-65 -90q-168 109 -393 109q-108 0 -200.5 -37.5t-166 -112.5t-116 -200.5t-42.5 -288.5q0 -132 28 -239t76.5 -178.5t116.5 -119.5t145 -68.5t165 -19.5q246 3 417 143l70 -88 q-196 -166 -487 -166h-13l-34 -51q66 4 112.5 -39t46.5 -106q0 -81 -61 -123.5t-162 -52.5l-27 73q75 11 111.5 35t36.5 68q0 27 -19 44t-47 17q-23 0 -39 -8l-57 49l62 99q-96 11 -178 43t-153.5 91t-122 141.5t-80 198.5t-30.5 257z" />
<glyph unicode="&#xc8;" horiz-adv-x="1167" d="M184 0v1434h881v-107h-760v-536h678v-109h-678v-567h760v-115h-881zM334 1794h182l158 -225h-109z" />
<glyph unicode="&#xc9;" horiz-adv-x="1167" d="M184 0v1434h881v-107h-760v-536h678v-109h-678v-567h760v-115h-881zM514 1569l156 225h180l-223 -225h-113z" />
<glyph unicode="&#xca;" horiz-adv-x="1167" d="M184 0v1434h881v-107h-760v-536h678v-109h-678v-567h760v-115h-881zM324 1591l229 217h68l217 -217h-133l-123 109l-119 -109h-139z" />
<glyph unicode="&#xcb;" horiz-adv-x="1167" d="M184 0v1434h881v-107h-760v-536h678v-109h-678v-567h760v-115h-881zM338 1708q0 42 23.5 66t62.5 24q42 0 66 -24t24 -66q0 -44 -24 -67t-66 -23q-39 0 -62.5 23.5t-23.5 66.5zM666 1708q0 42 24 66t64 24q39 0 62.5 -24t23.5 -66q0 -43 -23.5 -66.5t-62.5 -23.5 q-41 0 -64.5 23.5t-23.5 66.5z" />
<glyph unicode="&#xcc;" horiz-adv-x="530" d="M4 1794h182l158 -225h-108zM205 0v1434h121v-1434h-121z" />
<glyph unicode="&#xcd;" horiz-adv-x="530" d="M164 1569l155 225h181l-226 -225h-110zM205 0v1434h121v-1434h-121z" />
<glyph unicode="&#xce;" horiz-adv-x="530" d="M-4 1591l229 217h68l217 -217h-133l-123 109l-119 -109h-139zM205 0v1434h121v-1434h-121z" />
<glyph unicode="&#xcf;" horiz-adv-x="530" d="M10 1708q0 42 23.5 66t62.5 24q42 0 66 -24t24 -66q0 -44 -24 -67t-66 -23q-39 0 -62.5 23.5t-23.5 66.5zM205 0v1434h121v-1434h-121zM338 1708q0 42 24 66t64 24q39 0 62.5 -24t23.5 -66q0 -43 -23.5 -66.5t-62.5 -23.5q-41 0 -64.5 23.5t-23.5 66.5z" />
<glyph unicode="&#xd0;" horiz-adv-x="1597" d="M184 686v109h197v639h393q113 0 211.5 -23.5t185.5 -77t148.5 -134t97 -200.5t35.5 -270q0 -149 -35.5 -271t-97.5 -206t-148 -141.5t-185.5 -84t-211.5 -26.5h-393v686h-197zM502 115h291q259 0 398.5 154.5t139.5 459.5q0 304 -138.5 451t-399.5 147h-291v-532h241 v-109h-241v-571z" />
<glyph unicode="&#xd1;" horiz-adv-x="1488" d="M184 0v1434h109l891 -1219v1219h121v-1434h-107l-893 1221v-1221h-121zM440 1636q26 76 74.5 112t103.5 36q45 0 112 -37t99 -37q60 0 101 88l65 -43q-24 -70 -67 -108.5t-101 -38.5q-43 0 -105.5 36.5t-100.5 36.5q-41 0 -66.5 -20t-46.5 -59z" />
<glyph unicode="&#xd2;" horiz-adv-x="1628" d="M143 721q0 150 38.5 275t103.5 209t152 142t182 84.5t196 26.5t196 -26.5t181.5 -84.5t151 -142t103 -209t38.5 -275t-38.5 -275.5t-103 -211.5t-151 -145t-181.5 -86.5t-196 -27.5t-196 27.5t-182 86.5t-152 145t-103.5 211.5t-38.5 275.5zM266 723q0 -152 43.5 -275.5 t118 -201.5t172 -120t207.5 -42q89 0 170.5 25t151.5 77t122 126.5t81.5 180t29.5 230.5q0 154 -44.5 276t-121 197.5t-173.5 114.5t-208 39q-89 0 -169.5 -24t-150 -75t-120.5 -124t-80 -176.5t-29 -227.5zM535 1794h182l157 -225h-108z" />
<glyph unicode="&#xd3;" horiz-adv-x="1628" d="M143 721q0 150 38.5 275t103.5 209t152 142t182 84.5t196 26.5t196 -26.5t181.5 -84.5t151 -142t103 -209t38.5 -275t-38.5 -275.5t-103 -211.5t-151 -145t-181.5 -86.5t-196 -27.5t-196 27.5t-182 86.5t-152 145t-103.5 211.5t-38.5 275.5zM266 723q0 -152 43.5 -275.5 t118 -201.5t172 -120t207.5 -42q89 0 170.5 25t151.5 77t122 126.5t81.5 180t29.5 230.5q0 154 -44.5 276t-121 197.5t-173.5 114.5t-208 39q-89 0 -169.5 -24t-150 -75t-120.5 -124t-80 -176.5t-29 -227.5zM715 1569l155 225h181l-224 -225h-112z" />
<glyph unicode="&#xd4;" horiz-adv-x="1628" d="M143 721q0 150 38.5 275t103.5 209t152 142t182 84.5t196 26.5t196 -26.5t181.5 -84.5t151 -142t103 -209t38.5 -275t-38.5 -275.5t-103 -211.5t-151 -145t-181.5 -86.5t-196 -27.5t-196 27.5t-182 86.5t-152 145t-103.5 211.5t-38.5 275.5zM266 723q0 -152 43.5 -275.5 t118 -201.5t172 -120t207.5 -42q89 0 170.5 25t151.5 77t122 126.5t81.5 180t29.5 230.5q0 154 -44.5 276t-121 197.5t-173.5 114.5t-208 39q-89 0 -169.5 -24t-150 -75t-120.5 -124t-80 -176.5t-29 -227.5zM524 1591l230 217h67l217 -217h-133l-123 109l-118 -109h-140z " />
<glyph unicode="&#xd5;" horiz-adv-x="1628" d="M143 721q0 150 38.5 275t103.5 209t152 142t182 84.5t196 26.5t196 -26.5t181.5 -84.5t151 -142t103 -209t38.5 -275t-38.5 -275.5t-103 -211.5t-151 -145t-181.5 -86.5t-196 -27.5t-196 27.5t-182 86.5t-152 145t-103.5 211.5t-38.5 275.5zM266 723q0 -152 43.5 -275.5 t118 -201.5t172 -120t207.5 -42q89 0 170.5 25t151.5 77t122 126.5t81.5 180t29.5 230.5q0 154 -44.5 276t-121 197.5t-173.5 114.5t-208 39q-89 0 -169.5 -24t-150 -75t-120.5 -124t-80 -176.5t-29 -227.5zM504 1636q26 76 74.5 112t103.5 36q45 0 112 -37t99 -37 q59 0 100 88l66 -43q-24 -70 -67 -108.5t-101 -38.5q-43 0 -106 36.5t-101 36.5q-41 0 -66.5 -20t-46.5 -59z" />
<glyph unicode="&#xd6;" horiz-adv-x="1628" d="M143 721q0 150 38.5 275t103.5 209t152 142t182 84.5t196 26.5t196 -26.5t181.5 -84.5t151 -142t103 -209t38.5 -275t-38.5 -275.5t-103 -211.5t-151 -145t-181.5 -86.5t-196 -27.5t-196 27.5t-182 86.5t-152 145t-103.5 211.5t-38.5 275.5zM266 723q0 -152 43.5 -275.5 t118 -201.5t172 -120t207.5 -42q89 0 170.5 25t151.5 77t122 126.5t81.5 180t29.5 230.5q0 154 -44.5 276t-121 197.5t-173.5 114.5t-208 39q-89 0 -169.5 -24t-150 -75t-120.5 -124t-80 -176.5t-29 -227.5zM539 1708q0 42 23.5 66t62.5 24q42 0 66 -24t24 -66 q0 -44 -24 -67t-66 -23q-39 0 -62.5 23.5t-23.5 66.5zM866 1708q0 42 24 66t64 24q39 0 62.5 -24t23.5 -66q0 -43 -23.5 -66.5t-62.5 -23.5q-41 0 -64.5 23.5t-23.5 66.5z" />
<glyph unicode="&#xd7;" horiz-adv-x="1404" d="M195 989l84 82l423 -446l424 446l82 -88l-424 -446l424 -447l-78 -86l-425 449l-426 -447l-80 84l424 449z" />
<glyph unicode="&#xd8;" horiz-adv-x="1681" d="M143 721q0 150 38.5 275t103.5 209t152 142t182 84.5t196 26.5q167 0 305 -69l131 229l95 -53l-132 -232q126 -93 198.5 -246t72.5 -366q0 -150 -38.5 -275.5t-103 -211.5t-151 -145t-181.5 -86.5t-196 -27.5q-177 0 -326 82l-137 -241l-94 53l141 248 q-119 94 -187.5 246t-68.5 358zM266 723q0 -328 191 -506l610 1075q-116 58 -252 58q-89 0 -169.5 -24t-150 -75t-120.5 -124t-80 -176.5t-29 -227.5zM545 154q116 -70 262 -70q89 0 170.5 25t151.5 77t122 126.5t81.5 180t29.5 230.5q0 340 -205 510z" />
<glyph unicode="&#xd9;" horiz-adv-x="1427" d="M184 516v918h121v-932q0 -194 107.5 -302t302.5 -108q194 0 300.5 108t106.5 302v932h121v-918q0 -142 -43 -249t-118 -170t-167.5 -93.5t-199.5 -30.5t-200 30.5t-168.5 93.5t-119 170.5t-43.5 248.5zM440 1794h183l157 -225h-108z" />
<glyph unicode="&#xda;" horiz-adv-x="1427" d="M184 516v918h121v-932q0 -194 107.5 -302t302.5 -108q194 0 300.5 108t106.5 302v932h121v-918q0 -142 -43 -249t-118 -170t-167.5 -93.5t-199.5 -30.5t-200 30.5t-168.5 93.5t-119 170.5t-43.5 248.5zM621 1569l155 225h180l-223 -225h-112z" />
<glyph unicode="&#xdb;" horiz-adv-x="1427" d="M184 516v918h121v-932q0 -194 107.5 -302t302.5 -108q194 0 300.5 108t106.5 302v932h121v-918q0 -142 -43 -249t-118 -170t-167.5 -93.5t-199.5 -30.5t-200 30.5t-168.5 93.5t-119 170.5t-43.5 248.5zM430 1591l229 217h68l217 -217h-133l-123 109l-119 -109h-139z" />
<glyph unicode="&#xdc;" horiz-adv-x="1427" d="M184 516v918h121v-932q0 -194 107.5 -302t302.5 -108q194 0 300.5 108t106.5 302v932h121v-918q0 -142 -43 -249t-118 -170t-167.5 -93.5t-199.5 -30.5t-200 30.5t-168.5 93.5t-119 170.5t-43.5 248.5zM444 1708q0 42 23.5 66t62.5 24q42 0 66.5 -24t24.5 -66 q0 -43 -24.5 -66.5t-66.5 -23.5q-39 0 -62.5 23.5t-23.5 66.5zM772 1708q0 42 24 66t64 24q39 0 62.5 -24t23.5 -66q0 -43 -23.5 -66.5t-62.5 -23.5q-41 0 -64.5 23.5t-23.5 66.5z" />
<glyph unicode="&#xdd;" horiz-adv-x="1331" d="M70 1434h145l422 -750l416 750h141l-500 -861v-573h-121v573zM565 1569l156 225h180l-223 -225h-113z" />
<glyph unicode="&#xde;" horiz-adv-x="1114" d="M184 0v1434h123v-258h277q228 0 348.5 -110.5t120.5 -299.5q0 -93 -30 -173.5t-87 -142t-147 -96.5t-203 -35h-279v-319h-123zM307 428h262q172 0 265.5 88.5t93.5 249.5q0 157 -91.5 229t-267.5 72h-262v-639z" />
<glyph unicode="&#xdf;" horiz-adv-x="1077" d="M184 0v1257q0 139 89 223.5t239 84.5q158 0 244 -85.5t86 -211.5q0 -73 -21.5 -133t-53 -99t-62.5 -72t-52.5 -69t-21.5 -74q0 -40 34.5 -80.5t83.5 -80t98 -85.5t83.5 -116.5t34.5 -155.5q0 -155 -90 -240.5t-236 -85.5q-131 0 -236 41l35 101q95 -37 197 -37 q98 0 152.5 62.5t54.5 148.5q0 50 -18.5 95.5t-47.5 80.5t-64.5 68t-71 64.5t-64.5 63t-47.5 71t-18.5 81.5q0 45 21.5 87t52 76.5t61.5 72t52.5 89t21.5 111.5q0 99 -54.5 152t-150.5 53q-211 0 -211 -198v-1260h-119z" />
<glyph unicode="&#xe0;" horiz-adv-x="1124" d="M113 283q0 66 23 118t62 86t93.5 57t115.5 32.5t130 9.5q70 0 144.5 -6t113.5 -12l39 -7v172q0 142 -70.5 200t-202.5 58q-104 0 -181.5 -27.5t-150.5 -84.5l-59 79q171 140 395 140q204 0 295.5 -87t91.5 -288v-551q0 -90 70 -90q5 0 12.5 0.5t12.5 1t6 0.5l-17 -78 q-18 -12 -65 -12q-55 0 -83.5 28t-45.5 99q-118 -146 -346 -146q-176 0 -279.5 76t-103.5 232zM236 285q0 -73 39 -120.5t95.5 -65t129.5 -17.5q110 0 197 42.5t137 123.5v203q-159 26 -287 26q-311 0 -311 -192zM301 1434h182l158 -226h-109z" />
<glyph unicode="&#xe1;" horiz-adv-x="1124" d="M113 283q0 66 23 118t62 86t93.5 57t115.5 32.5t130 9.5q70 0 144.5 -6t113.5 -12l39 -7v172q0 142 -70.5 200t-202.5 58q-104 0 -181.5 -27.5t-150.5 -84.5l-59 79q171 140 395 140q204 0 295.5 -87t91.5 -288v-551q0 -90 70 -90q5 0 12.5 0.5t12.5 1t6 0.5l-17 -78 q-18 -12 -65 -12q-55 0 -83.5 28t-45.5 99q-118 -146 -346 -146q-176 0 -279.5 76t-103.5 232zM236 285q0 -73 39 -120.5t95.5 -65t129.5 -17.5q110 0 197 42.5t137 123.5v203q-159 26 -287 26q-311 0 -311 -192zM481 1208l156 226h180l-223 -226h-113z" />
<glyph unicode="&#xe2;" horiz-adv-x="1124" d="M113 283q0 66 23 118t62 86t93.5 57t115.5 32.5t130 9.5q70 0 144.5 -6t113.5 -12l39 -7v172q0 142 -70.5 200t-202.5 58q-104 0 -181.5 -27.5t-150.5 -84.5l-59 79q171 140 395 140q204 0 295.5 -87t91.5 -288v-551q0 -90 70 -90q5 0 12.5 0.5t12.5 1t6 0.5l-17 -78 q-18 -12 -65 -12q-55 0 -83.5 28t-45.5 99q-118 -146 -346 -146q-176 0 -279.5 76t-103.5 232zM236 285q0 -73 39 -120.5t95.5 -65t129.5 -17.5q110 0 197 42.5t137 123.5v203q-159 26 -287 26q-311 0 -311 -192zM291 1231l229 217h68l217 -217h-133l-123 108l-119 -108 h-139z" />
<glyph unicode="&#xe3;" horiz-adv-x="1124" d="M113 283q0 66 23 118t62 86t93.5 57t115.5 32.5t130 9.5q70 0 144.5 -6t113.5 -12l39 -7v172q0 142 -70.5 200t-202.5 58q-104 0 -181.5 -27.5t-150.5 -84.5l-59 79q171 140 395 140q204 0 295.5 -87t91.5 -288v-551q0 -90 70 -90q5 0 12.5 0.5t12.5 1t6 0.5l-17 -78 q-18 -12 -65 -12q-55 0 -83.5 28t-45.5 99q-118 -146 -346 -146q-176 0 -279.5 76t-103.5 232zM236 285q0 -73 39 -120.5t95.5 -65t129.5 -17.5q110 0 197 42.5t137 123.5v203q-159 26 -287 26q-311 0 -311 -192zM270 1276q26 76 75 111.5t104 35.5q45 0 111.5 -36.5 t98.5 -36.5q60 0 101 88l65 -43q-24 -70 -67 -109t-101 -39q-43 0 -105.5 37t-100.5 37q-41 0 -66.5 -20t-46.5 -60z" />
<glyph unicode="&#xe4;" horiz-adv-x="1124" d="M113 283q0 66 23 118t62 86t93.5 57t115.5 32.5t130 9.5q70 0 144.5 -6t113.5 -12l39 -7v172q0 142 -70.5 200t-202.5 58q-104 0 -181.5 -27.5t-150.5 -84.5l-59 79q171 140 395 140q204 0 295.5 -87t91.5 -288v-551q0 -90 70 -90q5 0 12.5 0.5t12.5 1t6 0.5l-17 -78 q-18 -12 -65 -12q-55 0 -83.5 28t-45.5 99q-118 -146 -346 -146q-176 0 -279.5 76t-103.5 232zM236 285q0 -73 39 -120.5t95.5 -65t129.5 -17.5q110 0 197 42.5t137 123.5v203q-159 26 -287 26q-311 0 -311 -192zM305 1348q0 42 23.5 66t62.5 24q42 0 66 -24t24 -66 q0 -44 -24 -67.5t-66 -23.5q-39 0 -62.5 24t-23.5 67zM633 1348q0 42 24 66t64 24q39 0 62.5 -24t23.5 -66q0 -43 -23.5 -67t-62.5 -24q-41 0 -64.5 23.5t-23.5 67.5z" />
<glyph unicode="&#xe5;" horiz-adv-x="1124" d="M113 283q0 66 23 118t62 86t93.5 57t115.5 32.5t130 9.5q70 0 144.5 -6t113.5 -12l39 -7v172q0 142 -70.5 200t-202.5 58q-104 0 -181.5 -27.5t-150.5 -84.5l-59 79q171 140 395 140q204 0 295.5 -87t91.5 -288v-551q0 -90 70 -90q5 0 12.5 0.5t12.5 1t6 0.5l-17 -78 q-18 -12 -65 -12q-55 0 -83.5 28t-45.5 99q-118 -146 -346 -146q-176 0 -279.5 76t-103.5 232zM236 285q0 -73 39 -120.5t95.5 -65t129.5 -17.5q110 0 197 42.5t137 123.5v203q-159 26 -287 26q-311 0 -311 -192zM412 1292q0 69 43.5 105.5t105.5 36.5q59 0 102.5 -36.5 t43.5 -105.5t-43 -104t-103 -35q-63 0 -106 35t-43 104zM489 1292q0 -33 20.5 -53t51.5 -20t50.5 20t19.5 53q0 34 -19.5 55t-50.5 21q-32 0 -52 -21t-20 -55z" />
<glyph unicode="&#xe6;" horiz-adv-x="1896" d="M113 295q0 92 39.5 159t109 103.5t150.5 53t178 16.5q59 0 123.5 -6.5t99.5 -12.5l35 -6v103q0 144 -75 215t-206 71q-167 0 -323 -112l-62 84q87 64 179 99.5t219 35.5q145 0 225.5 -52t124.5 -165q62 106 166 161.5t231 55.5q91 0 168 -30.5t136 -91t92.5 -159.5 t33.5 -227q0 -10 1 -29.5t1 -35.5t-2 -31h-790q7 -198 105 -305t265 -107q102 0 192.5 38t151.5 97l50 -84q-166 -158 -404 -158q-286 0 -416 234q-62 -109 -175.5 -171.5t-256.5 -62.5q-162 0 -264 84t-102 236zM236 301q0 -61 22.5 -105.5t60 -68t78 -34.5t84.5 -11 q142 0 255.5 83t113.5 187v140q-159 26 -268 26q-63 0 -112.5 -6t-94.5 -20.5t-74.5 -38.5t-47 -62.5t-17.5 -89.5zM971 600h667q-6 187 -86 289t-233 102q-156 0 -248.5 -103.5t-99.5 -287.5z" />
<glyph unicode="&#xe7;" horiz-adv-x="1097" d="M113 543q0 131 42 238t113 175t163 105t194 37q227 0 379 -131l-70 -84q-73 55 -139.5 81.5t-167.5 26.5q-175 0 -283 -116.5t-108 -331.5t113 -338t284 -123t325 121l68 -80q-65 -61 -164.5 -104.5t-230.5 -43.5h-4l-35 -51q67 4 113.5 -39.5t46.5 -105.5 q0 -81 -61.5 -123.5t-162.5 -52.5l-26 73q75 11 111 35t36 68q0 27 -18.5 44t-46.5 17q-23 0 -39 -8l-58 49l62 101q-195 27 -315.5 173t-120.5 388z" />
<glyph unicode="&#xe8;" horiz-adv-x="1204" d="M113 530q0 270 133 419t354 149q113 0 204 -43.5t147.5 -117t86 -165t29.5 -192.5q0 -58 -6 -105h-823q42 -393 389 -393q206 0 352 127l72 -76q-85 -75 -190.5 -116.5t-254.5 -41.5q-98 0 -185.5 34t-157 100.5t-110 175t-40.5 245.5zM233 582h725q-8 182 -103 295.5 t-251 113.5q-165 0 -266 -109t-105 -300zM326 1434h182l158 -226h-109z" />
<glyph unicode="&#xe9;" horiz-adv-x="1204" d="M113 530q0 270 133 419t354 149q113 0 204 -43.5t147.5 -117t86 -165t29.5 -192.5q0 -58 -6 -105h-823q42 -393 389 -393q206 0 352 127l72 -76q-85 -75 -190.5 -116.5t-254.5 -41.5q-98 0 -185.5 34t-157 100.5t-110 175t-40.5 245.5zM233 582h725q-8 182 -103 295.5 t-251 113.5q-165 0 -266 -109t-105 -300zM506 1208l156 226h180l-224 -226h-112z" />
<glyph unicode="&#xea;" horiz-adv-x="1204" d="M113 530q0 270 133 419t354 149q113 0 204 -43.5t147.5 -117t86 -165t29.5 -192.5q0 -58 -6 -105h-823q42 -393 389 -393q206 0 352 127l72 -76q-85 -75 -190.5 -116.5t-254.5 -41.5q-98 0 -185.5 34t-157 100.5t-110 175t-40.5 245.5zM233 582h725q-8 182 -103 295.5 t-251 113.5q-165 0 -266 -109t-105 -300zM315 1231l230 217h67l217 -217h-133l-123 108l-118 -108h-140z" />
<glyph unicode="&#xeb;" horiz-adv-x="1204" d="M113 530q0 270 133 419t354 149q113 0 204 -43.5t147.5 -117t86 -165t29.5 -192.5q0 -58 -6 -105h-823q42 -393 389 -393q206 0 352 127l72 -76q-85 -75 -190.5 -116.5t-254.5 -41.5q-98 0 -185.5 34t-157 100.5t-110 175t-40.5 245.5zM233 582h725q-8 182 -103 295.5 t-251 113.5q-165 0 -266 -109t-105 -300zM330 1348q0 42 23.5 66t62.5 24q42 0 66 -24t24 -66q0 -44 -24 -67.5t-66 -23.5q-39 0 -62.5 24t-23.5 67zM657 1348q0 42 24 66t64 24q39 0 62.5 -24t23.5 -66q0 -43 -23.5 -67t-62.5 -24q-41 0 -64.5 23.5t-23.5 67.5z" />
<glyph unicode="&#xec;" horiz-adv-x="425" d="M-70 1434h183l157 -226h-108zM154 0v1073h118v-1073h-118z" />
<glyph unicode="&#xed;" horiz-adv-x="425" d="M113 1208l155 226h181l-224 -226h-112zM154 0v1073h118v-1073h-118z" />
<glyph unicode="&#xee;" horiz-adv-x="425" d="M-78 1231l230 217h67l217 -217h-133l-123 108l-119 -108h-139zM154 0v1073h118v-1073h-118z" />
<glyph unicode="&#xef;" horiz-adv-x="425" d="M-63 1348q0 42 23.5 66t62.5 24q42 0 66 -24t24 -66q0 -44 -24 -67.5t-66 -23.5q-39 0 -62.5 24t-23.5 67zM154 0v1073h118v-1073h-118zM264 1348q0 42 24 66t64 24q39 0 62.5 -24t23.5 -66q0 -43 -23.5 -67t-62.5 -24q-40 0 -64 23.5t-24 67.5z" />
<glyph unicode="&#xf0;" horiz-adv-x="1224" d="M113 537q0 115 26.5 209t72.5 158.5t109 109t134 64.5t149 20q220 0 344 -162q-80 204 -243 354l-273 -133l-43 82l238 115q-58 47 -164 108l49 78q128 -69 213 -137l213 102l43 -82l-178 -86q309 -297 309 -768q0 -285 -133.5 -439.5t-364.5 -154.5q-99 0 -187 33.5 t-159 99.5t-113 176.5t-42 252.5zM236 537q0 -211 104 -333t274 -122q166 0 270.5 122.5t104.5 332.5q0 209 -109 331.5t-276 122.5q-170 0 -269 -121t-99 -333z" />
<glyph unicode="&#xf1;" horiz-adv-x="1210" d="M184 0v1073h88l19 -168h2q76 92 165 142.5t210 50.5q174 0 265 -88t91 -262v-748h-119v717q0 152 -60.5 213t-176.5 61q-228 0 -369 -221v-770h-115zM307 1276q26 76 74.5 111.5t103.5 35.5q45 0 112 -36.5t99 -36.5q60 0 101 88l65 -43q-24 -70 -67 -109t-101 -39 q-43 0 -106 37t-101 37q-41 0 -66 -20t-46 -60z" />
<glyph unicode="&#xf2;" d="M113 537q0 115 28 209t75.5 158.5t113.5 109t139.5 64.5t155.5 20q80 0 153.5 -20t138.5 -64.5t112.5 -109t75.5 -158.5t28 -209q0 -142 -42 -252.5t-114 -176.5t-161.5 -99.5t-190.5 -33.5q-103 0 -193 33.5t-162.5 99.5t-114.5 176.5t-42 252.5zM236 537 q0 -211 105 -333t284 -122q174 0 279.5 122.5t105.5 332.5t-105.5 332t-279.5 122q-179 0 -284 -121.5t-105 -332.5zM342 1434h182l158 -226h-109z" />
<glyph unicode="&#xf3;" d="M113 537q0 115 28 209t75.5 158.5t113.5 109t139.5 64.5t155.5 20q80 0 153.5 -20t138.5 -64.5t112.5 -109t75.5 -158.5t28 -209q0 -142 -42 -252.5t-114 -176.5t-161.5 -99.5t-190.5 -33.5q-103 0 -193 33.5t-162.5 99.5t-114.5 176.5t-42 252.5zM236 537 q0 -211 105 -333t284 -122q174 0 279.5 122.5t105.5 332.5t-105.5 332t-279.5 122q-179 0 -284 -121.5t-105 -332.5zM522 1208l156 226h180l-223 -226h-113z" />
<glyph unicode="&#xf4;" d="M113 537q0 115 28 209t75.5 158.5t113.5 109t139.5 64.5t155.5 20q80 0 153.5 -20t138.5 -64.5t112.5 -109t75.5 -158.5t28 -209q0 -142 -42 -252.5t-114 -176.5t-161.5 -99.5t-190.5 -33.5q-103 0 -193 33.5t-162.5 99.5t-114.5 176.5t-42 252.5zM236 537 q0 -211 105 -333t284 -122q174 0 279.5 122.5t105.5 332.5t-105.5 332t-279.5 122q-179 0 -284 -121.5t-105 -332.5zM332 1231l229 217h68l217 -217h-133l-123 108l-119 -108h-139z" />
<glyph unicode="&#xf5;" d="M113 537q0 115 28 209t75.5 158.5t113.5 109t139.5 64.5t155.5 20q80 0 153.5 -20t138.5 -64.5t112.5 -109t75.5 -158.5t28 -209q0 -142 -42 -252.5t-114 -176.5t-161.5 -99.5t-190.5 -33.5q-103 0 -193 33.5t-162.5 99.5t-114.5 176.5t-42 252.5zM236 537 q0 -211 105 -333t284 -122q174 0 279.5 122.5t105.5 332.5t-105.5 332t-279.5 122q-179 0 -284 -121.5t-105 -332.5zM311 1276q26 76 74.5 111.5t103.5 35.5q45 0 112 -36.5t99 -36.5q60 0 101 88l65 -43q-24 -70 -67 -109t-101 -39q-43 0 -105.5 37t-100.5 37 q-41 0 -66.5 -20t-46.5 -60z" />
<glyph unicode="&#xf6;" d="M113 537q0 115 28 209t75.5 158.5t113.5 109t139.5 64.5t155.5 20q80 0 153.5 -20t138.5 -64.5t112.5 -109t75.5 -158.5t28 -209q0 -142 -42 -252.5t-114 -176.5t-161.5 -99.5t-190.5 -33.5q-103 0 -193 33.5t-162.5 99.5t-114.5 176.5t-42 252.5zM236 537 q0 -211 105 -333t284 -122q174 0 279.5 122.5t105.5 332.5t-105.5 332t-279.5 122q-179 0 -284 -121.5t-105 -332.5zM346 1348q0 42 23.5 66t62.5 24q42 0 66 -24t24 -66q0 -44 -24 -67.5t-66 -23.5q-39 0 -62.5 24t-23.5 67zM674 1348q0 42 24 66t64 24q39 0 62.5 -24 t23.5 -66q0 -43 -23.5 -67t-62.5 -24q-40 0 -64 23.5t-24 67.5z" />
<glyph unicode="&#xf7;" horiz-adv-x="1282" d="M137 479v115h1014v-115h-1014zM526 96q0 59 35 90t82 31q49 0 85 -31t36 -90q0 -60 -36 -90.5t-85 -30.5q-48 0 -82.5 30.5t-34.5 90.5zM526 975q0 60 34.5 91.5t82.5 31.5q49 0 85 -31.5t36 -91.5q0 -59 -36 -89t-85 -30q-48 0 -82.5 30t-34.5 89z" />
<glyph unicode="&#xf8;" d="M113 537q0 115 28 209t75.5 158.5t113.5 109t139.5 64.5t155.5 20q113 0 213 -41l96 186l84 -45l-96 -188q99 -68 155 -186.5t56 -286.5q0 -142 -42 -252.5t-114 -176.5t-161.5 -99.5t-190.5 -33.5q-120 0 -213 41l-101 -198l-88 43l103 200q-99 68 -156 188t-57 288z M236 537q0 -250 143 -371l407 792q-78 33 -161 33q-179 0 -284 -121.5t-105 -332.5zM463 113q73 -31 162 -31q174 0 279.5 122.5t105.5 332.5q0 246 -144 368z" />
<glyph unicode="&#xf9;" horiz-adv-x="1200" d="M184 358v715h119v-688q0 -162 62.5 -232.5t164.5 -70.5q59 0 111.5 17t99.5 50.5t79.5 63.5t74.5 76v784h119v-1073h-92l-25 162h-6q-76 -92 -165.5 -139.5t-209.5 -47.5q-69 0 -126.5 20.5t-105 63.5t-74 119.5t-26.5 179.5zM350 1434h182l158 -226h-108z" />
<glyph unicode="&#xfa;" horiz-adv-x="1200" d="M184 358v715h119v-688q0 -162 62.5 -232.5t164.5 -70.5q59 0 111.5 17t99.5 50.5t79.5 63.5t74.5 76v784h119v-1073h-92l-25 162h-6q-76 -92 -165.5 -139.5t-209.5 -47.5q-69 0 -126.5 20.5t-105 63.5t-74 119.5t-26.5 179.5zM530 1208l156 226h180l-223 -226h-113z" />
<glyph unicode="&#xfb;" horiz-adv-x="1200" d="M184 358v715h119v-688q0 -162 62.5 -232.5t164.5 -70.5q59 0 111.5 17t99.5 50.5t79.5 63.5t74.5 76v784h119v-1073h-92l-25 162h-6q-76 -92 -165.5 -139.5t-209.5 -47.5q-69 0 -126.5 20.5t-105 63.5t-74 119.5t-26.5 179.5zM340 1231l229 217h68l217 -217h-133 l-123 108l-119 -108h-139z" />
<glyph unicode="&#xfc;" horiz-adv-x="1200" d="M184 358v715h119v-688q0 -162 62.5 -232.5t164.5 -70.5q59 0 111.5 17t99.5 50.5t79.5 63.5t74.5 76v784h119v-1073h-92l-25 162h-6q-76 -92 -165.5 -139.5t-209.5 -47.5q-69 0 -126.5 20.5t-105 63.5t-74 119.5t-26.5 179.5zM354 1348q0 42 23.5 66t62.5 24q42 0 66 -24 t24 -66q0 -44 -24 -67.5t-66 -23.5q-39 0 -62.5 24t-23.5 67zM682 1348q0 42 24 66t64 24q39 0 62.5 -24t23.5 -66q0 -43 -23.5 -67t-62.5 -24q-40 0 -64 23.5t-24 67.5z" />
<glyph unicode="&#xfd;" horiz-adv-x="1116" d="M61 1073h123l389 -975h9l358 975h115l-424 -1139q-132 -356 -375 -356q-78 0 -139 21l22 94q50 -17 107 -17q78 0 146 61.5t106 166.5l24 65zM479 1208l156 226h180l-223 -226h-113z" />
<glyph unicode="&#xfe;" horiz-adv-x="1204" d="M184 -422v1856h111v-529h6q68 96 152 144.5t202 48.5q93 0 171 -32.5t138 -96.5t94 -168.5t34 -239.5q0 -129 -41.5 -241t-109 -186.5t-154.5 -116.5t-179 -42q-100 0 -170 20t-135 62v-479h-119zM303 176q65 -53 125.5 -73.5t157.5 -20.5q68 0 134.5 31.5t122.5 89 t91 150t35 204.5q0 113 -28 199t-75 136t-104 74.5t-121 24.5q-105 0 -186 -59.5t-152 -181.5v-574z" />
<glyph unicode="&#xff;" horiz-adv-x="1116" d="M61 1073h123l389 -975h9l358 975h115l-424 -1139q-132 -356 -375 -356q-78 0 -139 21l22 94q50 -17 107 -17q78 0 146 61.5t106 166.5l24 65zM303 1348q0 42 23.5 66t62.5 24q42 0 66 -24t24 -66q0 -44 -24 -67.5t-66 -23.5q-39 0 -62.5 24t-23.5 67zM631 1348 q0 42 24 66t64 24q39 0 62.5 -24t23.5 -66q0 -43 -23.5 -67t-62.5 -24q-41 0 -64.5 23.5t-23.5 67.5z" />
<glyph unicode="&#x152;" horiz-adv-x="1744" d="M143 717q0 341 193 529t520 188h786v-101h-626v-553h543v-104h-543v-576h626v-100h-794q-158 0 -287.5 47.5t-222.5 137t-144 225.5t-51 307zM270 717q0 -183 65.5 -321.5t196.5 -217t312 -78.5h53v1233h-53q-269 0 -421.5 -168.5t-152.5 -447.5z" />
<glyph unicode="&#x153;" horiz-adv-x="2074" d="M113 537q0 132 39.5 240t107 177t154.5 106.5t184 37.5q96 0 180.5 -29.5t156.5 -97t109 -166.5q29 98 96.5 166t148.5 97.5t173 29.5q96 0 175.5 -29t134 -78t92 -114t54.5 -135.5t17 -143.5l-4 -104h-813q-1 -50 8 -101t35 -108.5t67 -101t111.5 -72.5t161.5 -29 q100 0 186 37.5t150 97.5l68 -84q-88 -77 -183.5 -117.5t-240.5 -40.5q-138 0 -259.5 73t-177.5 212q-49 -139 -173.5 -212t-276.5 -73q-95 0 -181.5 37.5t-153.5 107t-106.5 177.5t-39.5 240zM231 537q0 -208 103 -331.5t260 -123.5q187 0 287 119.5t100 335.5 q0 215 -99 334.5t-284 119.5q-160 0 -263.5 -122.5t-103.5 -331.5zM1118 600h690q-5 177 -97.5 284t-248.5 107q-153 0 -244 -103.5t-100 -287.5z" />
<glyph unicode="&#x178;" horiz-adv-x="1331" d="M70 1434h145l422 -750l416 750h141l-500 -861v-573h-121v573zM389 1708q0 42 23.5 66t62.5 24q42 0 66 -24t24 -66q0 -44 -24 -67t-66 -23q-39 0 -62.5 23.5t-23.5 66.5zM717 1708q0 42 24 66t64 24q39 0 62.5 -24t23.5 -66q0 -43 -23.5 -66.5t-62.5 -23.5 q-41 0 -64.5 23.5t-23.5 66.5z" />
<glyph unicode="&#x2c6;" horiz-adv-x="612" d="M49 1231l230 217h67l217 -217h-133l-123 108l-119 -108h-139z" />
<glyph unicode="&#x2dc;" horiz-adv-x="612" d="M29 1276q26 76 74.5 111.5t103.5 35.5q45 0 112 -36.5t99 -36.5q59 0 100 88l66 -43q-24 -70 -67 -109t-101 -39q-43 0 -106 37t-101 37q-41 0 -66.5 -20t-46.5 -60z" />
<glyph unicode="&#x2000;" horiz-adv-x="904" />
<glyph unicode="&#x2001;" horiz-adv-x="1808" />
<glyph unicode="&#x2002;" horiz-adv-x="904" />
<glyph unicode="&#x2003;" horiz-adv-x="1808" />
<glyph unicode="&#x2004;" horiz-adv-x="602" />
<glyph unicode="&#x2005;" horiz-adv-x="452" />
<glyph unicode="&#x2006;" horiz-adv-x="301" />
<glyph unicode="&#x2007;" horiz-adv-x="301" />
<glyph unicode="&#x2008;" horiz-adv-x="226" />
<glyph unicode="&#x2009;" horiz-adv-x="361" />
<glyph unicode="&#x200a;" horiz-adv-x="100" />
<glyph unicode="&#x2010;" horiz-adv-x="929" d="M184 541v106h561v-106h-561z" />
<glyph unicode="&#x2011;" horiz-adv-x="929" d="M184 541v106h561v-106h-561z" />
<glyph unicode="&#x2012;" horiz-adv-x="929" d="M184 541v106h561v-106h-561z" />
<glyph unicode="&#x2013;" horiz-adv-x="1249" d="M168 479v107h907v-107h-907z" />
<glyph unicode="&#x2014;" horiz-adv-x="1878" d="M166 479v107h1595v-107h-1595z" />
<glyph unicode="&#x2018;" horiz-adv-x="423" d="M61 1202q0 150 170 256l29 -28q-72 -72 -78 -136q41 -7 70 -37t29 -79q0 -46 -31.5 -75.5t-75.5 -29.5q-54 0 -83.5 36.5t-29.5 92.5z" />
<glyph unicode="&#x2019;" horiz-adv-x="501" d="M141 1352q0 48 31.5 77t77.5 29q53 0 81.5 -36.5t28.5 -94.5q0 -148 -170 -254l-28 29q2 0 19.5 18.5t37.5 52.5t23 64q-42 7 -71.5 37t-29.5 78z" />
<glyph unicode="&#x201a;" horiz-adv-x="423" d="M143 106q0 46 32 75.5t77 29.5q53 0 81.5 -36t28.5 -93q0 -151 -167 -254l-31 27q8 7 20 19.5t34 46.5t26 63q-43 5 -72 38t-29 84z" />
<glyph unicode="&#x201c;" horiz-adv-x="702" d="M61 1204q0 148 170 254l29 -28q-8 -7 -20.5 -20t-34.5 -49t-25 -67q42 -7 71.5 -36.5t29.5 -77.5t-31.5 -77.5t-77.5 -29.5q-52 0 -81.5 36.5t-29.5 94.5zM340 1204q0 148 170 254l29 -28l-7 -7q-7 -7 -18 -20.5t-22.5 -29.5t-20 -36.5t-10.5 -38.5q40 -6 69 -38.5 t29 -79.5q0 -48 -31 -77.5t-75 -29.5q-54 0 -83.5 36.5t-29.5 94.5z" />
<glyph unicode="&#x201d;" horiz-adv-x="702" d="M143 1352q0 48 31.5 77t77.5 29q53 0 81.5 -36.5t28.5 -94.5q0 -150 -167 -254l-31 29q3 3 8 7.5t17.5 19.5t23 29.5t20 35.5t11.5 39q-41 5 -71 38t-30 81zM422 1352q0 48 31 77t77 29q54 0 83.5 -36.5t29.5 -94.5q0 -148 -170 -254l-31 29q8 7 20.5 20t34.5 48.5 t25 66.5q-42 7 -71 37t-29 78z" />
<glyph unicode="&#x201e;" horiz-adv-x="702" d="M143 106q0 46 32 75.5t77 29.5q53 0 81.5 -36t28.5 -93q0 -153 -167 -254l-31 27q3 3 8 7.5t17.5 19t23 29t20 35.5t11.5 40q-42 5 -71.5 38t-29.5 82zM422 106q0 46 31.5 75.5t76.5 29.5q54 0 83.5 -36.5t29.5 -92.5q0 -151 -170 -254l-31 27q3 3 8 7.5t17.5 19.5 t23 30.5t20 36.5t11.5 41q-42 7 -71 37t-29 79z" />
<glyph unicode="&#x2022;" horiz-adv-x="663" d="M164 604q0 83 48.5 126.5t117.5 43.5q68 0 117 -44t49 -126q0 -84 -49 -128t-117 -44q-69 0 -117.5 44t-48.5 128z" />
<glyph unicode="&#x2026;" horiz-adv-x="1789" d="M217 88q0 52 30.5 82.5t80.5 30.5t79 -30.5t29 -82.5q0 -53 -29 -83t-79 -30t-80.5 30t-30.5 83zM784 88q0 52 30.5 82.5t80.5 30.5t79.5 -30.5t29.5 -82.5q0 -53 -29.5 -83t-79.5 -30t-80.5 30t-30.5 83zM1352 88q0 52 30 82.5t80 30.5t79.5 -30.5t29.5 -82.5 q0 -53 -29.5 -83t-79.5 -30t-80 30t-30 83z" />
<glyph unicode="&#x202f;" horiz-adv-x="361" />
<glyph unicode="&#x2039;" horiz-adv-x="733" d="M178 522l295 363l84 -66l-244 -295l244 -295l-80 -67z" />
<glyph unicode="&#x203a;" horiz-adv-x="759" d="M190 229l246 295l-246 295l84 66l297 -363l-301 -360z" />
<glyph unicode="&#x205f;" horiz-adv-x="452" />
<glyph unicode="&#x20ac;" horiz-adv-x="1458" d="M143 494v114h187q-4 70 -4 111q0 34 4 100h-187v115h201q23 134 77 235.5t130.5 164t169 93.5t199.5 31q155 0 260.5 -45t187.5 -113l-74 -88q-176 127 -374 127q-172 0 -289 -103.5t-158 -301.5h784l-28 -115h-772q-4 -66 -4 -100q0 -59 6 -111h737l-29 -114h-690 q45 -191 159.5 -296.5t262.5 -105.5q213 0 399 137l74 -88q-216 -168 -473 -168q-209 0 -358 131t-197 390h-201z" />
<glyph unicode="&#x2122;" horiz-adv-x="1716" d="M143 1343v91h553v-91h-225v-626h-102v626h-226zM815 717v717h76l299 -562l305 562h78v-717h-105v467l-264 -469h-35l-251 469v-467h-103z" />
<glyph unicode="&#xe000;" horiz-adv-x="1075" d="M0 0v1075h1075v-1075h-1075z" />
<glyph unicode="&#xfb01;" horiz-adv-x="1024" d="M82 973v100h166v187q0 305 332 305q95 0 153 -19.5t117 -60.5l-66 -88q-64 61 -200 61q-107 0 -162 -45.5t-55 -146.5v-193h503v-1073h-114v973h-389v-973h-119v973h-166z" />
<glyph unicode="&#xfb02;" horiz-adv-x="1132" d="M82 973v100h166v156q0 187 86.5 261.5t257.5 74.5q94 0 162 -26t107 -73t57 -106t18 -133v-1227h-119v1212q0 139 -54.5 192.5t-170.5 53.5q-125 0 -175 -47.5t-50 -169.5v-168h282v-100h-282v-973h-119v973h-166z" />
<glyph unicode="&#xfb03;" horiz-adv-x="1538" d="M82 973v100h166v211q0 147 78 214t211 67q81 0 147 -19l-22 -102q-49 14 -109 14q-186 0 -186 -166v-219h395v187q0 305 332 305q95 0 153 -19.5t117 -60.5l-66 -88q-64 61 -200 61q-107 0 -162 -45.5t-55 -146.5v-193h503v-1073h-114v973h-389v-973h-119v973h-395v-973 h-119v973h-166z" />
<glyph unicode="&#xfb04;" horiz-adv-x="1697" d="M82 973v100h166v211q0 147 78 214t211 67q81 0 147 -19l-22 -102q-49 14 -109 14q-186 0 -186 -166v-219h458v156q0 187 86.5 261.5t257.5 74.5q94 0 162 -26t107 -73t57 -106t18 -133v-1227h-118v1212q0 139 -55 192.5t-171 53.5q-125 0 -175 -47.5t-50 -169.5v-168h283 v-100h-283v-973h-119v973h-458v-973h-119v973h-166z" />
</font>
</defs>
</svg>
